<svg width="25" height="26" viewBox="0 0 25 26" fill="none" xmlns="http://www.w3.org/2000/svg">
<g clip-path="url(#clip0_70_91)">
<path d="M5.84766 25.6133H21.0234C21.5391 25.6133 21.9609 25.2031 21.9609 24.6758C21.9609 24.2656 21.6797 23.9023 21.3047 23.7734C19.8281 23.1875 19.5234 21.2773 20.9766 19.8125C21.4219 19.3672 21.9609 18.793 21.9609 17.6211V4.17969C21.9609 1.74219 20.7539 0.5 18.3281 0.5H5.88281C3.45703 0.5 2.25 1.73047 2.25 4.17969V21.9922C2.25 24.4062 3.46875 25.6133 5.84766 25.6133ZM4.13672 18.8398V4.21484C4.13672 3.04297 4.75781 2.38672 5.96484 2.38672H18.2344C19.4531 2.38672 20.0742 3.04297 20.0742 4.21484V17.3633C20.0742 17.9961 19.7109 18.3594 19.0547 18.3594H6.04688C5.28516 18.3594 4.65234 18.5234 4.13672 18.8398ZM5.95312 23.7266C4.76953 23.7266 4.13672 23.0938 4.13672 21.9805C4.13672 20.9258 4.88672 20.2461 6.05859 20.2461H18.082C18.2344 20.2461 18.375 20.2344 18.4922 20.2109C17.9414 21.4297 18.0352 22.7188 18.6562 23.7266H5.95312ZM5.51953 19.3672H7.05469V1.92969H5.51953V19.3672Z" fill="#181818"/>
</g>
<defs>
<clipPath id="clip0_70_91">
<rect width="19.7109" height="25.1133" fill="white" transform="translate(2.25 0.5)"/>
</clipPath>
</defs>
</svg>
