<svg width="25" height="27" viewBox="0 0 25 27" fill="none" xmlns="http://www.w3.org/2000/svg">
<g clip-path="url(#clip0_70_562)">
<path d="M6.11081 15.6211L7.36472 14.3203L3.19285 6.12891L5.07956 3.23438L10.0249 12.9844L11.9468 12.668L6.21628 1.99219H18.5561L12.8257 12.668L14.7475 12.9844L19.6928 3.23438L21.5913 6.12891L17.4077 14.3203L18.6616 15.6211L23.3725 6.77344C23.5952 6.38672 23.5835 5.94141 23.3374 5.57812L20.1616 0.714844C19.9155 0.375 19.6225 0.222656 19.1655 0.222656H5.61863C5.14988 0.222656 4.85691 0.375 4.62253 0.714844L1.43503 5.57812C1.20066 5.94141 1.18894 6.38672 1.39988 6.77344L6.11081 15.6211ZM8.04441 7.37109H16.7397V5.60156H8.04441V7.37109ZM12.3921 26.8945C16.6343 26.8945 20.0678 23.4609 20.0678 19.2188C20.0678 14.9648 16.6343 11.5312 12.3921 11.5312C8.13816 11.5312 4.70456 14.9648 4.70456 19.2188C4.70456 23.4609 8.13816 26.8945 12.3921 26.8945ZM12.3921 25.125C9.12253 25.125 6.4741 22.4883 6.4741 19.2188C6.4741 15.9492 9.11081 13.3008 12.3921 13.3008C15.6499 13.3008 18.2983 15.9375 18.2983 19.2188C18.2983 22.4766 15.6616 25.125 12.3921 25.125ZM10.3296 22.9219L12.4038 21.4102L14.4546 22.9219C14.8999 23.2383 15.3452 22.9102 15.1811 22.418L14.3491 19.9688L16.4468 18.4688C16.8335 18.1992 16.728 17.6367 16.1772 17.6367L13.6108 17.6602L12.8257 15.1992C12.6733 14.707 12.1108 14.707 11.9585 15.1992L11.1733 17.6602L8.60691 17.6367C8.06785 17.6367 7.93894 18.1875 8.3491 18.4805L10.4467 19.9688L9.61472 22.418C9.45066 22.9102 9.89597 23.2383 10.3296 22.9219Z" fill="#181818"/>
</g>
<defs>
<clipPath id="clip0_70_562">
<rect width="22.2812" height="26.8945" fill="white" transform="translate(1.25)"/>
</clipPath>
</defs>
</svg>
